<svg width="32" height="32" viewBox="0 0 32 32" fill="none" xmlns="http://www.w3.org/2000/svg">
  <!-- Card background with gradient -->
  <rect x="2" y="2" width="28" height="28" rx="4" ry="4" fill="url(#cardGradient)" stroke="#333" stroke-width="1.5"/>
  
  <!-- Gradient definition -->
  <defs>
    <linearGradient id="cardGradient" x1="0%" y1="0%" x2="100%" y2="100%">
      <stop offset="0%" style="stop-color:#ffffff"/>
      <stop offset="100%" style="stop-color:#f8f9fa"/>
    </linearGradient>
  </defs>
  
  <!-- Four suits in corners -->
  <!-- Heart (top-left) -->
  <path d="M8 8 C7.5 7.5, 6.5 7.5, 6.5 8.5 C6.5 9.5, 8 10.5, 8 10.5 C8 10.5, 9.5 9.5, 9.5 8.5 C9.5 7.5, 8.5 7.5, 8 8 Z" fill="#dc2626"/>
  
  <!-- Diamond (top-right) -->
  <path d="M24 8 L26 10 L24 12 L22 10 Z" fill="#dc2626"/>
  
  <!-- Club (bottom-left) -->
  <circle cx="7" cy="22" r="1.5" fill="#333"/>
  <circle cx="8.5" cy="20.5" r="1.5" fill="#333"/>
  <circle cx="6.5" cy="20.5" r="1.5" fill="#333"/>
  <path d="M7.5 21.5 L7.5 24 L6.5 24 L6.5 21.5" fill="#333"/>
  
  <!-- Spade (bottom-right) -->
  <path d="M24 20 C22.5 18.5, 21 19, 21 21 C21 22, 21.5 22.5, 22.5 23 L21.5 24 L26.5 24 L25.5 23 C26.5 22.5, 27 22, 27 21 C27 19, 25.5 18.5, 24 20 Z" fill="#333"/>
  
  <!-- Central card symbols -->
  <circle cx="16" cy="16" r="8" fill="rgba(255,255,255,0.8)" stroke="#333" stroke-width="1"/>
  <text x="16" y="20" font-family="Arial, sans-serif" font-size="10" font-weight="bold" fill="#333" text-anchor="middle">E</text>
</svg>
