<svg width="16" height="16" viewBox="0 0 16 16" fill="none" xmlns="http://www.w3.org/2000/svg">
  <!-- Card background -->
  <rect x="1" y="1" width="14" height="14" rx="2" ry="2" fill="white" stroke="#333" stroke-width="1"/>
  
  <!-- Heart -->
  <path d="M4 4 C3.5 3.5, 2.5 3.5, 2.5 4.5 C2.5 5.5, 4 6.5, 4 6.5 C4 6.5, 5.5 5.5, 5.5 4.5 C5.5 3.5, 4.5 3.5, 4 4 Z" fill="#dc2626"/>
  
  <!-- Diamond -->
  <path d="M12 4 L13 5 L12 6 L11 5 Z" fill="#dc2626"/>
  
  <!-- Club -->
  <circle cx="4" cy="11" r="0.8" fill="#333"/>
  <circle cx="4.8" cy="10.2" r="0.8" fill="#333"/>
  <circle cx="3.2" cy="10.2" r="0.8" fill="#333"/>
  <path d="M3.8 10.5 L3.8 12 L4.2 12 L4.2 10.5" fill="#333"/>
  
  <!-- Spade -->
  <path d="M12 10 C11.2 9.2, 10.5 9.5, 10.5 10.5 C10.5 11, 10.8 11.3, 11.3 11.5 L10.8 12 L13.2 12 L12.7 11.5 C13.2 11.3, 13.5 11, 13.5 10.5 C13.5 9.5, 12.8 9.2, 12 10 Z" fill="#333"/>
  
  <!-- Central E -->
  <text x="8" y="10" font-family="Arial, sans-serif" font-size="6" font-weight="bold" fill="#333" text-anchor="middle">E</text>
</svg>


